<?xml version="1.0" encoding="utf-8"?>
<!-- Generator: Adobe Illustrator 21.1.0, SVG Export Plug-In . SVG Version: 6.00 Build 0)  -->
<svg version="1.1" id="Capa_1" xmlns="http://www.w3.org/2000/svg" xmlns:xlink="http://www.w3.org/1999/xlink" x="0px" y="0px"
	 viewBox="0 0 243.5 243.5" style="enable-background:new 0 0 243.5 243.5;" xml:space="preserve">
<style type="text/css">
	.st0{fill:#FFFFFF;}
</style>
<g>
	<path class="st0" d="M113.4,157.8c0.4,3.9,3.7,6.7,7.5,6.7c0.3,0,0.5,0,0.8,0c4.1-0.4,7.1-4.1,6.7-8.2l-3.5-33.5
		c-0.4-4.1-4.1-7.1-8.2-6.7c-4.1,0.4-7.1,4.1-6.7,8.2L113.4,157.8z"/>
	<path class="st0" d="M160.3,164.5c0.3,0,0.5,0,0.8,0c3.8,0,7.1-2.9,7.5-6.7l3.5-33.5c0.4-4.1-2.6-7.8-6.7-8.2
		c-4.1-0.4-7.8,2.6-8.2,6.7l-3.5,33.5C153.2,160.4,156.2,164,160.3,164.5z"/>
	<path class="st0" d="M102.3,197.1c-12.8,0-23.2,10.4-23.2,23.2c0,12.8,10.4,23.2,23.2,23.2s23.2-10.4,23.2-23.2
		C125.5,207.5,115.1,197.1,102.3,197.1z M102.3,228.5c-4.5,0-8.2-3.7-8.2-8.2c0-4.5,3.7-8.2,8.2-8.2s8.2,3.7,8.2,8.2
		C110.5,224.8,106.8,228.5,102.3,228.5z"/>
	<path class="st0" d="M179.7,197.1c-12.8,0-23.2,10.4-23.2,23.2c0,12.8,10.4,23.2,23.2,23.2c12.8,0,23.2-10.4,23.2-23.2
		C202.9,207.5,192.5,197.1,179.7,197.1z M179.7,228.5c-4.5,0-8.2-3.7-8.2-8.2c0-4.5,3.7-8.2,8.2-8.2c4.5,0,8.2,3.7,8.2,8.2
		C187.9,224.8,184.2,228.5,179.7,228.5z"/>
	<path class="st0" d="M224.6,91.1c-1.4-1.8-3.6-2.9-5.9-2.9H69.1L62.9,64c-0.9-3.3-3.8-5.6-7.3-5.6H24.9c-4.1,0-7.5,3.4-7.5,7.5
		s3.4,7.5,7.5,7.5h24.9L56,97.3c0,0.2,0.1,0.3,0.1,0.4l23.1,89c0.9,3.3,3.8,5.6,7.3,5.6h108.9c3.4,0,6.4-2.3,7.3-5.6l23.2-89.3
		C226.5,95.3,226,92.9,224.6,91.1z M189.6,177.4H92.3L73,103.1h135.9L189.6,177.4z"/>
	<path class="st0" d="M135.7,74.8c1.5,1.5,3.4,2.2,5.3,2.2c1.9,0,3.8-0.7,5.3-2.2l24.3-24.3c2.9-2.9,2.9-7.7,0-10.6
		c-2.9-2.9-7.7-2.9-10.6,0l-11.5,11.5l0-43.9c0-4.1-3.4-7.5-7.5-7.5h0c-4.1,0-7.5,3.4-7.5,7.5l0,43.9L122,40
		c-2.9-2.9-7.7-2.9-10.6,0c-2.9,2.9-2.9,7.7,0,10.6L135.7,74.8z"/>
</g>
</svg>
